<?xml version="1.0" encoding="utf-8"?>
<!-- Generator: Adobe Illustrator 26.0.1, SVG Export Plug-In . SVG Version: 6.00 Build 0)  -->
<svg version="1.1" xmlns="http://www.w3.org/2000/svg" xmlns:xlink="http://www.w3.org/1999/xlink" x="0px" y="0px"
	 viewBox="0 0 270.99 92.02" enable-background="new 0 0 270.99 92.02" xml:space="preserve">
<g id="Слой_2">
</g>
<g id="Слой_3">
	<g>
		<polyline fill="none" stroke="#000000" stroke-width="4" stroke-miterlimit="10" points="139.94,2 96.61,2 96.61,63.78 		"/>
		<polyline fill="none" stroke="#000000" stroke-width="4" stroke-miterlimit="10" points="137.72,15.33 59.49,15.33 59.49,63.78 		
			"/>
		<line fill="none" stroke="#000000" stroke-width="4" stroke-miterlimit="10" x1="71.94" y1="63.78" x2="71.94" y2="42.89"/>
		<line fill="none" stroke="#000000" stroke-width="4" stroke-miterlimit="10" x1="83.49" y1="63.78" x2="83.49" y2="42.89"/>
		<line fill="none" stroke="#000000" stroke-width="4" stroke-miterlimit="10" x1="111.94" y1="32.89" x2="111.94" y2="21.11"/>
		<line fill="none" stroke="#000000" stroke-width="4" stroke-miterlimit="10" x1="124.61" y1="32.89" x2="124.61" y2="21.11"/>
		<line fill="none" stroke="#000000" stroke-width="4" stroke-miterlimit="10" x1="137.72" y1="32.89" x2="137.72" y2="21.11"/>
		<line fill="none" stroke="#000000" stroke-width="4" stroke-miterlimit="10" x1="124.61" y1="40.33" x2="124.61" y2="63.78"/>
		<path fill="none" stroke="#000000" stroke-width="4" stroke-miterlimit="10" d="M124.61,66"/>
		<polyline fill="none" stroke="#000000" stroke-width="4" stroke-miterlimit="10" points="137.72,40.33 164.16,40.33 164.16,63.78 
			236.38,63.78 111.27,63.78 111.27,40.33 137.72,40.33 137.72,63.78 39.05,63.78 		"/>
		<polyline fill="none" stroke="#000000" stroke-width="4" stroke-miterlimit="10" points="139.94,2 178.83,2 178.83,63.78 		"/>
		<polyline fill="none" stroke="#000000" stroke-width="4" stroke-miterlimit="10" points="137.72,15.33 215.94,15.33 215.94,63.78 
					"/>
		<line fill="none" stroke="#000000" stroke-width="4" stroke-miterlimit="10" x1="203.49" y1="63.78" x2="203.49" y2="42.89"/>
		<line fill="none" stroke="#000000" stroke-width="4" stroke-miterlimit="10" x1="191.94" y1="63.78" x2="191.94" y2="42.89"/>
		<line fill="none" stroke="#000000" stroke-width="4" stroke-miterlimit="10" x1="163.49" y1="32.89" x2="163.49" y2="21.11"/>
		<line fill="none" stroke="#000000" stroke-width="4" stroke-miterlimit="10" x1="150.83" y1="32.89" x2="150.83" y2="21.11"/>
		<line fill="none" stroke="#000000" stroke-width="4" stroke-miterlimit="10" x1="150.83" y1="40.33" x2="150.83" y2="63.78"/>
		<g>
			<path d="M10.17,91.87v-7.64l0.06-1.63l-0.4,1.36l-1.86,4.86H5.71l-1.89-4.86l-0.4-1.36l0.06,1.63v7.64H0V76.01h3.48l3.36,8.66
				l3.36-8.66h3.45v15.86H10.17z"/>
			<path d="M24.25,91.87l-3.08-6.57l-1.1,1.6v4.97h-3.7V76.01h3.7v6.17l3.87-6.17h3.84l-4.1,6.08l4.46,9.78H24.25z"/>
			<path d="M34.53,92.02c-3.02,0-5.43-1.16-5.43-4.88v-6.41c0-3.72,2.4-4.88,5.43-4.88c3.05,0,5.43,1.16,5.43,4.88v6.41
				C39.96,90.86,37.59,92.02,34.53,92.02z M36.26,80.8c0-1.89-0.73-2.25-1.72-2.25c-0.99,0-1.7,0.36-1.7,2.25v6.26
				c0,1.89,0.71,2.27,1.7,2.27c0.99,0,1.72-0.38,1.72-2.27V80.8z"/>
			<path d="M48.41,89.02c-0.34,0.89-0.79,1.58-1.44,2.05c-0.82,0.6-2.15,0.8-3.62,0.8h-1.02v-2.69h0.65c1.07,0,1.61-0.33,1.89-1.11
				l0.42-1.14l-4.32-10.91h3.98l1.84,5.17c0.14,0.4,0.4,1.51,0.45,1.92h0.08c0.03-0.42,0.57-2.16,0.71-2.56l1.58-4.52h3.9
				L48.41,89.02z"/>
			<path d="M70.14,90.46h-0.96v1.4h-3.7v-1.4h-0.99c-3.02,0-5.4-0.87-5.4-4.77v-3.59c0-3.9,2.37-4.74,5.4-4.74h0.99v-1.36h3.7v1.36
				h0.96c3.05,0,5.43,0.85,5.43,4.74v3.59C75.57,89.6,73.19,90.46,70.14,90.46z M65.54,80.09h-0.9c-1.07,0-1.81,0.42-1.81,2.2v3.23
				c0,1.8,0.79,2.25,1.84,2.25h0.88V80.09z M71.84,82.29c0-1.78-0.73-2.2-1.81-2.2h-0.9v7.68H70c1.05,0,1.84-0.45,1.84-2.25V82.29z"
				/>
			<path d="M85.15,91.87v-7.26c0-0.47,0.14-1.8,0.2-2.16h-0.06l-4.3,9.42h-3.16V76.01h3.67v7.08c0,0.49-0.08,1.96-0.17,2.36h0.06
				l4.27-9.44h3.16v15.86H85.15z"/>
			<path d="M99.22,91.87V78.71h-2.57l-0.23,7.3c-0.11,3.54-1.38,5.86-5.28,5.86h-1.05v-2.72c2.23,0,2.49-1.87,2.51-3.21l0.31-9.93
				h10.03v15.86H99.22z"/>
			<path d="M112.99,91.87v-7.26c0-0.47,0.14-1.8,0.2-2.16h-0.06l-4.29,9.42h-3.16V76.01h3.67v7.08c0,0.49-0.08,1.96-0.17,2.36h0.06
				l4.27-9.44h3.16v15.86H112.99z"/>
			<path d="M126.46,91.87V78.71h-3.39v13.16h-3.7V76.01h10.82v15.86H126.46z"/>
			<path d="M139.97,91.87V78.71h-3.39v13.16h-3.7V76.01h10.82v15.86H139.97z"/>
			<path d="M151.42,92.02c-3.02,0-5.43-1.16-5.43-4.88v-6.41c0-3.72,2.4-4.88,5.43-4.88c3.05,0,5.43,1.16,5.43,4.88v6.41
				C156.84,90.86,154.47,92.02,151.42,92.02z M153.14,80.8c0-1.89-0.73-2.25-1.72-2.25c-0.99,0-1.7,0.36-1.7,2.25v6.26
				c0,1.89,0.71,2.27,1.7,2.27c0.99,0,1.72-0.38,1.72-2.27V80.8z"/>
			<path d="M164.76,91.87h-5.57V76.01h5.43c3.7,0,5.4,1.38,5.4,4.34v0.31c0,1.8-1.13,2.72-2.12,3.07c0.99,0.29,2.34,1.23,2.34,3.32
				v0.31C170.24,90.62,167.95,91.87,164.76,91.87z M164.33,78.66h-1.44v3.81h1.5c1.53,0,1.92-0.73,1.92-1.89
				C166.31,79.31,165.8,78.66,164.33,78.66z M164.5,85.1h-1.61v4.12h1.61c1.61,0,2.03-0.76,2.03-2.07
				C166.54,85.83,166.14,85.1,164.5,85.1z"/>
			<path d="M177.25,92.02c-3.02,0-5.43-1.16-5.43-4.88v-6.41c0-3.72,2.4-4.88,5.43-4.88c3.08,0,5.31,1.16,5.37,5.01h-3.76
				c-0.03-1.74-0.4-2.32-1.61-2.32c-0.99,0-1.69,0.36-1.69,2.25v6.26c0,1.89,0.73,2.27,1.67,2.27c1.1,0,1.61-0.49,1.64-2.34h3.76
				C182.53,90.58,180.5,92.02,177.25,92.02z"/>
			<path d="M192.51,91.87l-3.08-6.57l-1.1,1.6v4.97h-3.7V76.01h3.7v6.17l3.87-6.17h3.84l-4.1,6.08l4.46,9.78H192.51z"/>
			<path d="M205.54,91.87l-0.68-2.56h-4.04l-0.65,2.56h-3.65l4.66-15.86h3.28l4.75,15.86H205.54z M203.19,82.96l-0.4-1.74
				l-0.37,1.74c0,0-0.99,3.94-1.02,3.94h2.83L203.19,82.96z"/>
			<path d="M217.58,91.87v-6.04h-1.22l-2.57,6.04h-3.87l3.05-6.64c-1.58-0.56-2.66-1.85-2.66-4.21v-0.51c0-2.81,1.61-4.5,5.2-4.5
				h5.74v15.86H217.58z M217.58,78.64h-1.61c-1.38,0-1.89,0.67-1.89,2.05v0.49c0,1.38,0.62,2.05,1.89,2.05h1.61V78.64z"/>
			<path d="M233.6,92.02c-3.02,0-5.43-1.16-5.43-4.88v-6.41c0-3.72,2.4-4.88,5.43-4.88c3.08,0,5.31,1.16,5.37,5.01h-3.76
				c-0.03-1.74-0.4-2.32-1.61-2.32c-0.99,0-1.69,0.36-1.69,2.25v6.26c0,1.89,0.73,2.27,1.67,2.27c1.1,0,1.61-0.49,1.64-2.34h3.76
				C238.89,90.58,236.85,92.02,233.6,92.02z"/>
			<path d="M246.01,92.02c-3.02,0-5.43-1.16-5.43-4.88v-6.41c0-3.72,2.4-4.88,5.43-4.88c3.05,0,5.43,1.16,5.43,4.88v6.41
				C251.43,90.86,249.06,92.02,246.01,92.02z M247.73,80.8c0-1.89-0.73-2.25-1.72-2.25s-1.69,0.36-1.69,2.25v6.26
				c0,1.89,0.71,2.27,1.69,2.27s1.72-0.38,1.72-2.27V80.8z"/>
			<path d="M253.78,91.87V76.01h3.7v13.16h3.05V76.01h3.7v13.16h3.02V76.01h3.73v15.86H253.78z"/>
		</g>
	</g>
</g>
</svg>
